<?xml version="1.0" encoding="UTF-8"?>
<svg id="Layer_1" xmlns="http://www.w3.org/2000/svg" version="1.1" viewBox="0 0 666.04 666.04">
  <!-- Generator: Adobe Illustrator 29.7.1, SVG Export Plug-In . SVG Version: 2.1.1 Build 8)  -->
  <defs>
    <style>
      .st0 {
        fill: none;
      }

      .st1 {
        fill: #5375b9;
      }

      .st2 {
        fill: #92abd9;
      }

      .st3 {
        fill: #4a74b9;
      }

      .st4 {
        fill: #23285f;
      }

      .st5 {
        fill: #fff;
      }

      .st6 {
        fill: #213163;
      }

      .st7 {
        fill: #334fa2;
      }

      .st8 {
        fill: #3a5ba9;
      }

      .st9 {
        fill: #a6bae0;
      }

      .st10 {
        fill: #edf1fa;
      }

      .st11 {
        fill: #2c499f;
      }

      .st12 {
        fill: #7290ca;
      }

      .st13 {
        fill: #3f5eab;
      }

      .st14 {
        fill: #ede4c2;
      }
    </style>
  </defs>
  <path class="st6" d="M333.02,637.88c-81.43,0-157.99-31.71-215.57-89.29-57.58-57.58-89.29-134.14-89.29-215.57s31.71-157.99,89.29-215.57C175.03,59.87,251.59,28.16,333.02,28.16s157.99,31.71,215.57,89.29c57.58,57.58,89.29,134.14,89.29,215.57s-31.71,157.99-89.29,215.57c-57.58,57.58-134.14,89.29-215.57,89.29Z"/>
  <circle class="st14" cx="333.02" cy="333.02" r="295.17"/>
  <g>
    <path class="st0" d="M195.61,215.82c-7.25,7.13-14.47,14.3-21.66,21.49,6.11-6.11,12.24-12.2,18.4-18.26,1.09-1.07,2.17-2.16,3.26-3.23Z"/>
    <path class="st0" d="M343.28,411.04c7.97-7.94,15.9-15.91,23.78-23.93-2.9,2.95-5.82,5.87-8.73,8.81-5,5.05-10.02,10.09-15.05,15.12Z"/>
    <path class="st3" d="M257.37,197.6c-18.4,4.65-36.76,9.46-55.08,14.42-2.41.65-4.9,2.05-6.68,3.8-1.09,1.07-2.17,2.16-3.26,3.23l-14.75,42.41-13.07,56.96,13.07,60.7,35.48,38.29,48.56,9.34,53.23-5.6,43.46-25.22c2.91-2.94,5.84-5.86,8.73-8.81,1.74-1.77,3.09-4.3,3.74-6.71,4.96-18.32,9.78-36.68,14.45-55.08.63-2.47.81-5.35.19-7.78-4.74-18.55-9.66-37.05-14.72-55.52-.62-2.25-2.1-4.51-3.75-6.19-13.15-13.34-26.37-26.61-39.75-39.71-2-1.96-4.82-3.5-7.53-4.25-17.97-4.99-35.99-9.79-54.06-14.41-2.59-.66-5.64-.52-8.25.14ZM277.22,211.77c5.15.68,11.38,1.62,18.5,2.79,3.55.6,7.33,1.24,11.32,1.92,1.99.35,4.03.71,6.11,1.08,1.04.19,2.1.38,3.16.57.53.1,1.07.19,1.61.29.97.19,1.95.38,2.93.57,3.46,3.25,7.07,6.64,10.79,10.13,3.37,3.2,6.86,6.5,10.43,9.89,3.55,3.41,7.2,6.91,10.93,10.49,4.04,3.93,8.17,7.94,12.36,12.02.13.49.26.98.39,1.47,1.39,5.34,2.75,10.6,4.09,15.76,1.25,4.94,2.48,9.79,3.67,14.51,1.17,4.73,2.3,9.34,3.4,13.82,1.19,4.91,2.34,9.68,3.44,14.26-.31.95-.61,1.9-.92,2.85-.18.53-.35,1.06-.53,1.58-.35,1.05-.7,2.09-1.05,3.11-.7,2.05-1.38,4.05-2.05,6.01-1.36,3.9-2.65,7.6-3.86,11.08-2.46,6.95-4.7,13.01-6.63,17.97-3.87,9.92-6.54,15.49-7.48,15.2-.94-.29-.04-6.39,2.32-16.78,1.18-5.19,2.72-11.46,4.57-18.6.95-3.57,1.95-7.36,3.01-11.35.54-1.99,1.1-4.03,1.67-6.12.29-1.04.58-2.1.87-3.17.15-.53.3-1.07.45-1.61l.05-.18v-.03s0-.06,0-.06v-.11s-.04-.1-.04-.1l-.02-.05s0,.04-.05-.15c-.15-.52-.3-1.04-.45-1.57-.3-1.05-.61-2.11-.91-3.18-.61-2.14-1.23-4.32-1.85-6.54-1.23-4.44-2.51-9.01-3.81-13.71-1.28-4.7-2.59-9.52-3.92-14.44-1.25-4.71-2.52-9.5-3.82-14.38h0c-3.46-3.41-6.87-6.76-10.21-10.05-3.66-3.64-7.24-7.21-10.73-10.69-3.47-3.5-6.85-6.91-10.12-10.21-1.63-1.66-3.23-3.29-4.8-4.89-.78-.8-1.56-1.6-2.33-2.39-.38-.39-.77-.79-1.15-1.18l-.07-.07h0s-.02-.03-.02-.03l-.03-.05-.07-.09-.1-.04-.05-.02h-.03s0-.01-.02-.02l-.1-.02c-.53-.13-1.06-.25-1.59-.38-1.05-.25-2.09-.5-3.12-.75-2.06-.5-4.07-.99-6.03-1.47-3.92-.98-7.64-1.91-11.13-2.79-6.99-1.79-13.07-3.43-18.06-4.88-9.99-2.89-15.62-5.01-15.42-5.96.2-.95,6.21-.63,16.51.74Z"/>
    <path class="st7" d="M314.87,421.14l-53.23,5.6-48.56-9.34-35.48-38.29-13.07-60.7,13.07-56.96,14.75-42.41c-6.16,6.06-12.29,12.15-18.4,18.26-6.17,6.17-12.31,12.37-18.42,18.59-1.75,1.78-3.1,4.3-3.77,6.71-3.84,13.84-7.41,27.74-11.08,41.63-1.47,5.58-2.96,11.16-4.32,16.31.33,1.82.49,3.14.82,4.42,4.85,18.69,9.66,37.39,14.69,56.04.61,2.25,2.07,4.52,3.72,6.2,13.15,13.34,26.37,26.61,39.75,39.71,1.99,1.95,4.83,3.45,7.55,4.19,18.15,4.95,36.35,9.71,54.6,14.32,2.61.66,5.67.73,8.26.07,18.23-4.65,36.41-9.49,54.56-14.48,2.41-.66,4.9-2.08,6.68-3.83,5.46-5.36,10.88-10.75,16.3-16.15,5.03-5.02,10.05-10.06,15.05-15.12l-43.46,25.22Z"/>
    <path class="st1" d="M406.29,309.96c-2.95,3.55-8.13,7.18-8.11,10.76.02,3.82,4.83,7.72,7.8,11.39,7.47,9.23,15.07,18.36,22.87,27.83,18.22-13.02,36.06-25.77,54.37-38.86-18.4-12.86-36.24-25.34-54.43-38.05-7.69,9.2-15.12,18.04-22.51,26.92ZM455.77,306.45c2.41,1.44,4.91,2.99,7.49,4.63.82.53,1.65,1.06,2.49,1.6,1.3.85,2.6,1.71,3.92,2.57,2.63,1.74,5.3,3.51,8,5.3l.43.28c-2.72,1.74-5.41,3.45-8.06,5.14-1.32.84-2.64,1.67-3.94,2.49-.59.37-1.18.74-1.77,1.11l-.98.6c-2.59,1.58-5.11,3.08-7.53,4.47-4.84,2.79-9.27,5.18-13.08,7.06-7.61,3.76-12.71,5.47-13.49,4.25s2.89-5.14,9.47-10.51c3.29-2.68,7.31-5.72,11.85-8.96,2.27-1.62,4.68-3.29,7.2-5l.95-.64c.23-.15.17-.12.17-.13h0s0-.04-.01-.05c-.01-.01-.03-.02-.03-.02h0s.02,0,.03-.01c0,0,.01-.02.01-.03h0s-.41-.3-.41-.3l-.94-.66c-2.5-1.75-4.89-3.47-7.15-5.14-4.52-3.33-8.51-6.46-11.77-9.21-6.53-5.5-10.16-9.51-9.36-10.72s5.9.6,13.49,4.52c3.79,1.96,8.21,4.44,13.03,7.33Z"/>
    <path class="st2" d="M222.86,153.97c13.17,10.81,25.91,21.26,38.86,31.89,12.72-10.65,25.12-21.03,38.07-31.87-12.79-18.29-25.26-36.1-38.07-54.42-13.16,18.42-25.9,36.26-38.85,54.4ZM270.9,120.96c2.45,2.7,5.22,6.02,8.16,9.8,1.47,1.89,2.98,3.9,4.52,5.99.76,1.06,1.54,2.13,2.32,3.22.79,1.12,1.59,2.26,2.39,3.41,1.65,2.4,3.28,4.77,4.88,7.1-1.79,1.75-3.55,3.48-5.28,5.18-.38.37-.76.74-1.14,1.11l-.66.62c-.44.41-.87.81-1.3,1.21-1.72,1.59-3.4,3.1-5.02,4.51-3.23,2.82-6.22,5.25-8.82,7.19-5.19,3.87-8.83,5.75-9.79,4.79-.96-.96.92-4.6,4.79-9.79,1.94-2.6,4.37-5.58,7.19-8.82,1.41-1.62,2.92-3.3,4.51-5.02.4-.43.8-.86,1.21-1.3l.62-.66.15-.16h0s0-.02,0-.02c0-.04-.03-.05-.05-.06-.03,0-.04,0-.04,0-.76-1.12-1.52-2.22-2.26-3.31-.74-1.12-1.47-2.22-2.19-3.31-1.42-2.18-2.77-4.3-4.02-6.34-2.5-4.08-4.64-7.84-6.3-11.09-3.33-6.49-4.8-10.92-3.6-11.75,1.2-.83,4.83,2.1,9.73,7.51Z"/>
    <path class="st12" d="M261.71,543.46c12.86-18.38,25.26-36.1,38.07-54.41-12.33-10.34-24.17-20.38-36.2-30.19-.83-.68-3.42-.25-4.48.58-7.3,5.7-14.41,11.64-21.57,17.52-4.82,3.96-9.62,7.94-14.67,12.11,13.06,18.29,25.78,36.11,38.85,54.39ZM262.57,465.04c2.18-1.95,9.08,2.21,15.92,8.8,6.83,6.6,11.23,13.35,9.36,15.6-1.85,2.23-9.54-1.11-16.68-8.01-7.15-6.89-10.76-14.45-8.6-16.38Z"/>
    <path class="st1" d="M98.07,354.79c7.35-8.95,14.67-17.92,22.01-26.88,5.53-6.75,5.58-6.78.06-13.41-8.66-10.4-17.39-20.75-26.38-31.47-18.17,12.71-36.01,25.19-54.42,38.07,18.33,13.08,36.18,25.82,54.32,38.77,1.64-1.88,3.07-3.44,4.42-5.08ZM96.39,343.56c-1.07-.84-.1-4.12,2.55-8.75,1.33-2.31,3.08-4.95,5.21-7.76,1.06-1.41,2.22-2.86,3.47-4.33.31-.37.63-.74.95-1.11,0-.02-.01-.04-.02-.06-.02-.03-.04-.04-.06-.05-.03,0-.03,0-.03,0h0s0,0,0,0l-.2-.27c-.32-.44-.65-.89-.97-1.33-.63-.88-1.25-1.76-1.85-2.62-1.19-1.73-2.3-3.44-3.32-5.08-2.03-3.29-3.71-6.37-4.96-9.04-2.51-5.35-3.36-9.08-2.15-9.88,1.22-.8,4.26,1.47,8.29,5.66,2.02,2.1,4.28,4.67,6.71,7.59,1.21,1.46,2.46,3.01,3.74,4.62.63.81,1.28,1.64,1.93,2.47.91,1.19,1.84,2.4,2.77,3.63,1.28,1.7,2.55,3.37,3.8,5.02-1.42,1.44-2.83,2.87-4.21,4.27-.68.69-1.36,1.38-2.03,2.06-.34.33-.67.66-1.01.98-1.34,1.29-2.64,2.53-3.87,3.71-2.49,2.34-4.77,4.4-6.77,6.06-4,3.32-6.91,5.03-7.99,4.18Z"/>
    <path class="st2" d="M381.09,388.98c-.91.36-1.66,2.74-1.46,4.02,2.27,14.95,4.73,29.88,7.24,45.46,21.97-2.05,43.58-4.08,66.02-6.18-9.23-20.57-18.12-40.36-27.22-60.64-15.18,5.85-29.92,11.47-44.57,17.34ZM431.76,394.01c1.88,3.54,3.95,7.83,6.1,12.65,1.08,2.41,2.17,4.95,3.27,7.61.29.72.59,1.44.89,2.17.54,1.35,1.08,2.72,1.62,4.09,1.08,2.77,2.18,5.58,3.29,8.42-.34.04-.67.07-1.01.11-3.06.31-6.09.62-9.07.92-1.35.13-2.7.26-4.03.39-.74.06-1.46.12-2.19.18-2.89.23-5.69.42-8.35.56-5.33.29-10.14.4-14.2.34-8.12-.11-13.22-.91-13.37-2.36-.15-1.45,4.67-3.28,12.59-5.06,3.96-.89,8.7-1.77,13.97-2.59,2.64-.41,5.41-.8,8.29-1.17.72-.09,1.45-.18,2.18-.27l.27-.03.13-.02h0s0-.01,0-.01v-.02s-.01-.03-.01-.03h0s.02,0,.04,0c0,0,.02-.01.03-.02-.23-.63-.45-1.26-.68-1.88-.97-2.7-1.87-5.32-2.69-7.83-1.65-5.01-3-9.58-3.99-13.47-1.98-7.77-2.53-12.83-1.19-13.35,1.35-.52,4.34,3.59,8.1,10.68Z"/>
    <path class="st1" d="M208.25,487.28c2.89-1.28,2.39-2.82,1.51-5.07-4.34-11.05-8.55-22.15-12.81-33.23-3.65-9.5-3.68-9.66-13.65-8.17-12.83,1.92-25.63,4.13-38.96,6.3,2.07,22.04,4.1,43.67,6.12,65.24,1.04,0,1.41.1,1.67-.01,18.7-8.36,37.38-16.78,56.12-25.06Z"/>
    <path class="st2" d="M194.77,200.14c4.83-13.15,9.83-26.24,15.02-39.25,1.25-3.14.4-4.35-2.44-5.52-5.65-2.32-11.17-4.96-16.74-7.47-13.08-5.87-26.16-11.73-40.07-17.97-2.09,22.29-4.13,43.91-6.2,65.98,15.54,2.53,30.17,4.91,44.8,7.31,2.72.45,4.51-.02,5.64-3.09ZM188.34,196.56c-1.31-.35-1.48-4.46-.71-10.91.39-3.23,1.01-7.04,1.85-11.27.42-2.11.89-4.33,1.42-6.63.13-.57.27-1.15.4-1.74l.21-.88.05-.22c.02-.1,0-.03,0-.06h0s-.05-.05-.07-.04c-.02,0-.03,0-.03.01h0s0,0,0,0h0s.04.02-.09-.04c-19.97-9.75-35.12-19.78-33.84-22.39s18.5,3.17,38.47,12.92c2.66,1.31,5.29,2.61,7.87,3.88-.68,2.42-1.35,4.8-2.01,7.15-.14.49-.28.98-.42,1.47l-.26.86c-.18.57-.35,1.14-.53,1.7-.71,2.25-1.41,4.4-2.12,6.44-1.4,4.07-2.79,7.68-4.08,10.67-2.58,5.96-4.8,9.42-6.11,9.07Z"/>
    <path class="st3" d="M327.63,443.39c-4.7,12.85-9.59,25.63-14.71,38.32-1.42,3.52-.49,4.77,2.75,6.18,15,6.51,29.89,13.3,44.81,19.99,3.58,1.61,7.16,3.23,11.56,5.21,2.1-22.32,4.13-43.94,6.2-66-15.57-2.52-30.22-4.86-44.85-7.29-3.13-.52-4.63.48-5.77,3.59ZM356.66,446.27c2.14.38,4.39.88,6.7,1.51.58.16,1.16.33,1.75.5l.88.27.46.14.81.27c1.07.42,2.08.92,3.14,1.38l.79.36c.21.16.42.32.61.5.38.35.72.76,1.03,1.23.5.79.79,1.61.93,2.48.15.88.1,1.9-.07,2.92-.19,1.37-.38,2.75-.57,4.14-3.13,22.23-8.01,39.92-10.89,39.52-2.88-.41-2.68-18.76.45-40.99.07-.52.15-1.04.22-1.55l.06-.39v-.1s.02,0,.02,0h0s0,0,0,0c0,0,.03-.01.05-.04.02-.03.02-.05,0-.1,0,0-.02-.02-.03-.02l-.37-.15-.77-.31c-.52-.19-1.03-.39-1.53-.58-2.03-.75-3.99-1.44-5.87-2.07-3.77-1.23-7.19-2.24-10.08-3.08-5.78-1.68-9.46-2.87-9.43-4.22.02-1.28,3.85-2.53,10.33-2.62,3.23-.05,7.11.24,11.4.99Z"/>
    <path class="st9" d="M140.56,254.52c1.22-.49,2.53-3.04,2.33-4.42-2.18-14.98-4.64-29.92-7.14-45.54-21.95,2.05-43.58,4.07-66.07,6.18,9.38,20.86,18.28,40.64,27.26,60.6,15.07-5.76,29.4-11.14,43.63-16.82ZM129.47,249.99c-1.34-.65-1.7-2.8-2.18-5.65-.42-2.88-1.04-6.7-1.41-11.61-.65-9.85,1.17-17.98,4.08-18.18,2.9-.19,5.79,7.63,6.44,17.48.17,2.47.16,4.98-.12,7.33-.29,2.35-.85,4.52-1.65,6.27-.8,1.74-1.77,3.03-2.71,3.75-.94.72-1.79.9-2.45.6Z"/>
    <path class="st1" d="M139.53,387.91c-10.24-3.67-20.33-7.76-30.5-11.62-3.83-1.45-8.68-4.74-11.35-3.49-3.04,1.42-4.33,6.88-6.07,10.72-7.23,15.93-14.34,31.91-21.91,48.78,22.61,2.1,44.24,4.12,66,6.14,2.51-15.4,4.87-30.04,7.3-44.66.5-3.04-.28-4.72-3.47-5.86Z"/>
    <path class="st12" d="M420.13,211.44c2.9.24,5.95.53,9.1.87,1.57.18,3.18.36,4.8.54,3.15.4,6.35.81,9.59,1.22,1.45.19,2.89.38,4.33.57-1.25,2.99-2.49,5.93-3.7,8.84-.58,1.36-1.15,2.72-1.72,4.06-.31.71-.62,1.41-.93,2.1-1.23,2.78-2.45,5.44-3.65,7.96-2.38,5.04-4.65,9.52-6.69,13.21-4.08,7.39-7.23,11.66-8.54,11.12-1.31-.54-.53-5.79,1.8-13.91,1.16-4.06,2.71-8.83,4.58-14.08.93-2.63,1.95-5.37,3.03-8.21.27-.71.55-1.42.83-2.15l.09-.23h0s0-.02,0-.02l-.02-.02s-.04-.01-.05,0h0s0,0,0,0h0s0-.01,0-.01h0s-.28-.04-.28-.04c-1.62-.24-3.21-.47-4.78-.7-3.13-.48-6.15-.97-9.02-1.48-.42-.07-.83-.15-1.25-.22-.6,9.28-.79,20.5-.99,34.07-.2-13.76-.4-25.09-1.01-34.44-4.44-.83-8.47-1.68-11.94-2.52-8.61-2.08-13.84-4.08-13.66-5.53.19-1.44,5.76-2.05,14.61-1.86,3.02.06,6.42.22,10.12.47-.17-1.36-.35-2.66-.56-3.92-9.08-.85-18.17-1.7-27.34-2.56-2.51,15.47-4.85,30.11-7.29,44.74-.51,3.07.3,4.66,3.47,5.82,12.86,4.69,25.63,9.62,38.34,14.71,3.34,1.34,4.75.82,6.24-2.6,7.66-17.57,15.64-35,23.48-52.49.5-1.12.76-2.34,1.3-4.05-11.22-1.05-22.31-2.09-33.39-3.12-.19,1.2-.36,2.45-.52,3.74.54.04,1.09.09,1.64.13Z"/>
    <path class="st12" d="M369.62,176.98c-.46,8.56-1.47,13.9-2.93,13.98-1.45.08-3.07-5.1-4.52-13.55-.07-.43-.15-.88-.22-1.33-7.22-.26-15.39-.39-24.68-.53,9.22-.13,17.34-.27,24.51-.52-.58-3.7-1.12-7.9-1.6-12.5-.3-2.8-.57-5.75-.82-8.81-.06-.76-.12-1.53-.18-2.31l-.04-.58-.02-.29h0s-.02,0-.02,0c-.02,0-.03,0-.03,0h0s.01-.03,0-.05c0-.01-.01-.02-.03-.03h-.01s0-.01,0-.01l-.23.1-1.02.46c-2.72,1.21-5.35,2.35-7.87,3.4-5.04,2.1-9.63,3.86-13.54,5.2-7.83,2.68-12.95,3.7-13.57,2.41-.61-1.29,3.4-4.64,10.41-9.03,3.51-2.2,7.76-4.66,12.56-7.26,2.4-1.3,4.94-2.63,7.59-3.98l1-.51c.59-.29,1.19-.59,1.79-.88,1.36-.66,2.72-1.33,4.1-2,2.78-1.34,5.59-2.7,8.45-4.08.06,1.03.12,2.06.18,3.1.18,3.25.35,6.46.53,9.62.06,1.28.13,2.56.19,3.82.03.78.06,1.55.09,2.32.11,3.06.17,6.02.2,8.84.05,4.66,0,8.93-.16,12.69,2.27-.13,4.43-.29,6.48-.47-1.37-14.62-2.74-29.23-4.15-44.29-20.03,9-39.17,17.55-58.21,26.32-.84.39-1.42,3.02-.99,4.19,4.89,13.31,10.09,26.51,15,39.82,1.02,2.76,2.51,3.51,5.18,3.02,3.89-.71,7.81-1.3,11.72-1.93,11.01-1.77,22.03-3.54,33.49-5.38-.6-6.37-1.19-12.69-1.78-19.01-2.15-.19-4.42-.36-6.82-.5,0,.18-.02.36-.03.54Z"/>
    <path class="st10" d="M405.83,164.14c-11.27-10.7-19.94-18.71-18.6-20.8.78-1.23,4.99-.09,10.93,3.15,3.82,2.1,8.37,5.1,13.11,8.89.22-.56.44-1.14.64-1.74-9.51-8.52-19.82-16.27-31.06-23.32,1.35,14.71,2.64,28.87,3.97,42.84,9.73-1.55,16.41-4.23,21.02-9.02Z"/>
    <path class="st10" d="M385.28,178.02c.49,5.07.98,10.12,1.49,15.17.11,1.09,1.95,2.77,3.12,2.88,7.4.74,14.81,1.45,22.28,2.16-3.92-12.26-11.57-17.68-26.88-20.21Z"/>
    <path class="st10" d="M435.29,183.47c.74,1.57,1.37,3,1.87,4.28.45,1.31.73,2.49.92,3.47.36,1.96.24,3.16-.41,3.49-.65.32-1.76-.25-3.18-1.51-.72-.63-1.48-1.44-2.36-2.37-.93-.91-1.94-1.96-3-3.15-.36-.39-.75-.81-1.14-1.22-3.24,3.14-5.5,7.24-7.11,12.6,10.32.96,20.84,1.92,31.71,2.92-4.77-7.48-9.82-14.56-15.17-21.27-1.03.38-2,.8-2.93,1.25.28.52.54,1.03.79,1.52Z"/>
    <path class="st9" d="M486.26,312.59c-1.67-34.83-9.85-66.39-26-97.09-9.28,20.7-18.05,40.25-26.94,60.08,17.48,12.22,34.65,24.22,52.94,37.01ZM460.68,243.44c-1.34-5.92-1.89-9.77-.61-10.46,1.28-.69,4.3,2.18,7.52,7.68,3.26,5.47,6.64,13.59,9.01,22.93,2.39,9.34,3.19,18.08,2.98,24.41-.03,3.16-.45,5.74-.9,7.52-.47,1.78-1.08,2.78-1.8,2.83s-1.5-.84-2.28-2.48c-.8-1.64-1.51-4.03-2.41-6.95-1.65-5.87-3.54-13.92-5.8-22.75-2.24-8.83-4.33-16.82-5.71-22.72Z"/>
    <path class="st10" d="M307.24,149.49c20.01-8.98,39.45-17.7,59.64-26.77-21.52-13.93-78.28-28.85-96.03-25.27,12.21,17.46,24.29,34.73,36.39,52.04ZM321.25,108.3c8.39,1.86,15.79,4.7,20.78,7.57,1.24.73,2.35,1.44,3.29,2.1.93.69,1.69,1.38,2.28,1.98,1.18,1.22,1.66,2.19,1.34,2.84-.32.66-1.39.94-3.02.9-.82-.01-1.76-.12-2.84-.27-1.1-.12-2.32-.31-3.64-.56-5.32-.95-12.49-2.5-20.47-4.27-15.97-3.51-29.08-6.9-28.86-9.81.2-2.9,14.3-4.17,31.13-.49Z"/>
    <path class="st3" d="M460.06,427.07c16.27-30.96,24.6-62.6,26.15-97.41-18.25,13.03-35.53,25.37-52.9,37.78,8.86,19.75,17.51,39.03,26.75,59.63ZM476.88,345.97c2.91.3,3.39,15.65-1.38,33.6-2.34,8.96-5.51,16.8-8.47,22.16-1.45,2.69-2.9,4.76-4.1,6.09-1.2,1.33-2.18,1.93-2.86,1.65s-.98-1.4-.96-3.17c.02-1.77.38-4.18.9-7.11,1.11-5.83,3.04-13.67,5.29-22.3,4.58-17.23,8.7-31.25,11.58-30.92Z"/>
    <path class="st9" d="M253.16,96.58c-34.86,1.6-66.52,9.9-97.42,26.17,20.62,9.24,40.08,17.97,59.64,26.74,12.56-17.59,24.76-34.67,37.78-52.91ZM213.84,133.9c1.61-3.73,4.28-8.47,7.54-13.49,3.26-5.02,6.5-9.39,9.25-12.38,2.75-2.99,5.04-4.58,6.34-3.9,1.28.67,1.32,3.5.17,7.53-1.14,4.03-3.51,9.23-6.92,14.49-3.41,5.26-7.21,9.54-10.42,12.22-3.22,2.69-5.82,3.81-6.95,2.91-1.14-.91-.62-3.65.99-7.38Z"/>
    <path class="st13" d="M386.51,451.15c-.43,5.61-1.02,11.21-1.54,16.82-1.31,14.16-2.61,28.32-4.04,43.85,29.38-18.68,52.43-41.59,70.48-69.91-.94-.33-1.25-.55-1.54-.52-19.96,1.8-39.91,3.67-59.88,5.41-2.99.26-3.3,2.01-3.48,4.36ZM430.78,448.93c1.66.03,3.3.06,4.91.09.8.02,1.6.05,2.39.07.39.01.79.03,1.18.04.35.02.7.04,1.04.06-3.39,4.24-6.76,8.23-9.49,11.42-1.37,1.6-2.6,3.03-3.7,4.27-.31.37-.45.48-.62.64-.17.15-.33.3-.5.45-.33.29-.65.56-.96.83-2.49,2.07-4.46,3.04-5.51,2.37-1.04-.67-.99-2.89.06-6.06.13-.4.28-.8.44-1.23.08-.21.17-.43.25-.64.09-.21.21-.49.17-.5-.03-.3-.09-.52-.17-.66-.17-.3-.46-.28-.69-.2-.2.08-.29.15-.28.15,0,0,.04-.04.03-.11,0-.02,0-.04-.02-.06-.05-.02.13-.06-.38-.03-.71.02-1.4.03-2.07.05-2.72.05-5.24,0-7.37-.22-4.26-.42-6.99-1.4-7.18-2.84-.18-1.44,2.21-3.08,6.24-4.55,2.01-.73,4.42-1.44,7.19-2.03.69-.15,1.41-.29,2.14-.42.22-.05,1.12-.17,1.8-.25.73-.08,1.46-.16,2.2-.25,2.97-.3,6.03-.43,8.89-.37Z"/>
    <path class="st10" d="M132.33,196.28c3.25-.28,3.53-2.1,3.75-4.64.83-9.57,1.84-19.12,2.72-28.69.95-10.31,1.82-20.62,2.83-32.11-29.07,18.73-52.08,41.67-70.34,70.6,1.8,0,2.73.07,3.64-.01,19.13-1.73,38.26-3.54,57.4-5.16ZM124.77,166.32c.93-12.84,4.84-22.8,7.7-22.36,2.9.44,3.71,10.75,2.82,23.13-.92,12.37-3.22,22.45-6.15,22.47-2.89.02-5.31-10.4-4.36-23.24Z"/>
    <path class="st7" d="M141.05,505.8c-1.67-18.45-3.42-36.88-5.01-55.34-.24-2.82-1.6-3.5-4.12-3.72-13.34-1.18-26.67-2.53-40.01-3.76-6.42-.59-12.85-1.03-20.23-1.61,18.43,28.67,41.04,51.27,69.39,69.52,0-2.13.12-3.62-.02-5.1Z"/>
    <path class="st7" d="M270.89,545.52c34.19-1.61,65.31-9.74,95.51-25.44-20.29-9.1-39.64-17.77-59.17-26.53-12.12,17.33-23.92,34.2-36.34,51.96ZM334.67,509.57c1.38.86,2.67,1.72,3.78,2.46,1.13.74,2.12,1.38,3.07,1.91.96.55,1.99,1.05,2.98,1.55,1.98.99,3.77,2.02,4.84,3.05,1.09,1.02,1.48,1.96,1.2,2.62-.29.68-1.17,1.04-2.47,1.28-1.31.23-3.06.38-5.44.27-1.19-.07-2.54-.19-4.07-.54-1.54-.35-3.12-.9-4.62-1.54-1.52-.65-2.93-1.35-4.37-2.08-1.44-.74-2.92-1.53-4.41-2.37-11.94-6.76-20.45-14.3-19.01-16.83,1.44-2.53,12.27.9,24.21,7.66,1.49.85,2.93,1.7,4.3,2.56Z"/>
    <path class="st7" d="M156.6,519.9c30.53,15.74,61.66,24.08,95.87,25.57-12.86-17.99-24.94-34.91-37.11-51.93-19.57,8.78-38.69,17.36-58.76,26.36Z"/>
    <path class="st11" d="M37.25,330.29c1.75,34.45,9.88,65.65,25.7,95.84,9.02-20.12,17.59-39.24,26.32-58.7-17.13-12.23-34.04-24.3-52.02-37.14Z"/>
    <path class="st8" d="M62.68,216.34c-15.56,30.38-23.92,61.43-25.31,95.55,17.89-12.53,34.67-24.28,51.9-36.33-8.86-19.74-17.49-38.97-26.58-59.21ZM81.62,277.32c-.73.09-1.48-.49-2.32-1.47-.84-.99-1.79-2.38-2.94-4.14-1.13-1.75-2.49-3.91-3.89-6.51-1.38-2.57-2.77-5.45-4.08-8.54-5.25-12.34-7.34-23.27-4.66-24.41,2.68-1.14,9.11,7.94,14.36,20.28,1.31,3.09,2.43,6.08,3.32,8.86.88,2.75,1.61,5.39,1.96,7.78.36,2.38.31,4.44-.05,5.86-.36,1.43-.98,2.21-1.7,2.29Z"/>
    <path class="st12" d="M141.98,379.26c-4.3-16.52-8.29-31.88-12.59-48.41-9.41,11.45-18.14,22.08-27.23,33.13,13.27,5.09,25.99,9.98,39.82,15.28ZM122.55,352.97c-1.1-6.31.32-11.83,3.19-12.33,2.87-.5,6.09,4.2,7.19,10.51,1.1,6.31-.32,11.83-3.19,12.33-2.87.5-6.09-4.2-7.19-10.51Z"/>
    <path class="st2" d="M218.81,480.68c11.2-9.22,21.81-17.95,33.13-27.28-16.64-4.31-32.02-8.3-48.37-12.54,5.22,13.64,10.07,26.34,15.23,39.82ZM227.93,449.01c.44.06.89.13,1.35.22.24.05.47.09.71.14.44.13.88.25,1.33.38,1.81.54,3.79,1.14,5.8,1.84.96.38,1.69.92,2.2,1.46.27.27.47.55.62.82.16.27.35.55.45.8.2.39.47,1.55.42,2.1,0,.6-.13,1.08-.32,1.69-.14.33-.26.64-.43.97-.25.36-.49.71-.73,1.06-.68.71-1.42,1.4-2.31,2.01-.44.31-.82.62-1.18.92-.36.3-.75.6-1.05.89-.31.28-.61.55-.91.82-.16.12-.31.23-.46.35-.62.46-1.21.89-1.75,1.29-2.23,1.58-4.09,2.64-5.44,2.03-1.3-.58-1.8-2.93-.72-6.23.26-.82.64-1.68,1.11-2.58.12-.22.25-.45.37-.67.04-.12,0-.13,0-.2-.02-.11-.06-.16-.1-.22-.16-.21-.42-.15-.42-.15,0,0,.22-.08.2-.37,0-.04,0-.08-.02-.12-.2-.12-.4-.23-.6-.35-.4-.24-.79-.47-1.16-.71-.74-.48-1.42-.96-2.03-1.44-2.43-1.92-3.67-3.79-3.17-5.15.51-1.36,2.67-1.97,5.76-1.84.77.03,1.6.11,2.48.23Z"/>
    <path class="st9" d="M218.84,162.39c-5.08,13.23-9.96,25.94-15.29,39.81,16.5-4.29,31.86-8.28,48.43-12.58-11.45-9.4-22.07-18.13-33.14-27.23ZM226.16,185.82c-3.87-3.87-5.33-8.67-3.28-10.73s6.86-.59,10.73,3.28c3.87,3.87,5.33,8.67,3.28,10.73-2.06,2.06-6.86.59-10.73-3.28Z"/>
    <path class="st9" d="M393.17,330.81c-4.31,16.65-8.3,32.08-12.53,48.43,13.8-5.3,26.52-10.18,39.77-15.27-9.08-11.05-17.81-21.68-27.24-33.16ZM402.65,366.15c-1.75,1.04-3.41,1.91-4.89,2.55-2.96,1.27-5.27,1.62-6.26.54-.98-1.07-.42-3.39,1.43-6.22.92-1.41,2.17-2.95,3.7-4.49.38-.39.78-.77,1.2-1.16.08-.07.06-.06.05-.06v-.02s-.02-.03-.02-.03c0-.02-.02-.04-.03-.05-.04-.06-.09-.06-.09-.06h.01s.1,0,.16-.06c.03-.03.06-.06.09-.12.01-.03.03-.05.03-.1-.15-.22-.3-.44-.45-.66-1.21-1.81-2.07-3.57-2.61-5.14-1.08-3.15-.86-5.44.34-6.13,1.23-.71,3.19.21,5.57,1.92,1.19.86,2.49,1.91,3.89,3.08.18.15.36.31.55.46.34.33.7.68,1.08,1.03.75.7,1.54,1.42,2.41,2.15,1.71,1.47,3.55,3.07,5.31,4.65-.52.38-1.05.76-1.58,1.14-1.98,1.43-4,2.81-5.88,4.11-.91.63-1.8,1.25-2.67,1.85-.45.28-.9.55-1.33.82Z"/>
    <path class="st9" d="M420.33,279c-13.39-5.12-26.04-9.96-39.66-15.18,4.26,16.2,8.22,31.25,12.52,47.63,9.44-11.29,18.11-21.66,27.14-32.46ZM396.12,291c.57-1.44,1.33-3.04,2.21-4.76.11-.21.22-.43.34-.65.03-.11-.01-.08-.02-.11-.03-.04-.07-.07-.1-.09-.06-.03-.12-.02-.12-.02,0,0,.05-.01.09-.07.02-.03.04-.07.05-.12v-.04s0-.02,0-.02c0,0-.09-.06-.13-.09-.22-.15-.43-.3-.64-.45-1.69-1.19-3.14-2.4-4.29-3.54-2.3-2.29-3.38-4.35-2.7-5.64s2.99-1.56,6.18-.95c1.6.3,3.41.82,5.35,1.55.24.09.49.19.73.28.08.03.09.03.22.09l.35.16.71.33c.97.46,1.95.93,2.95,1.41,1.03.49,1.98,1.02,2.97,1.56.49.27.99.55,1.48.82l.74.42.37.21.19.11s.07.03.09.05l-.05.09c-1.18,2.02-2.34,3.96-3.52,5.81-.59.93-1.21,1.82-1.84,2.67-.29.41-.64.88-.91,1.21-.19.21-.37.42-.55.63-1.48,1.64-2.99,2.95-4.4,3.91-2.82,1.91-5.16,2.39-6.2,1.39-1.06-1.02-.68-3.26.45-6.13Z"/>
    <path class="st3" d="M319.01,202.14c-5.28-13.75-10.15-26.44-15.23-39.68-10.83,9.07-21.21,17.78-32.4,27.16,16.34,4.29,31.48,8.28,47.63,12.52Z"/>
    <path class="st12" d="M102.23,279.06c9.2,10.97,17.89,21.32,27.17,32.38,4.31-16.38,8.27-31.44,12.53-47.67-13.9,5.35-26.55,10.22-39.7,15.29ZM133.76,287.52c-1,6.19-3.97,10.94-6.86,10.58-2.88-.36-4.58-5.86-3.55-12.26,1.03-6.4,4.36-11.09,7.22-10.53,2.86.57,4.19,6.01,3.19,12.2Z"/>
    <path class="st2" d="M319.01,440.87c-16.22,4.28-31.44,8.3-47.64,12.58,11.29,9.45,21.63,18.1,32.41,27.12,5.08-13.24,9.95-25.94,15.23-39.69ZM296.06,465.44c-.55-2.18-.46-5.18.58-8.23.52-1.52,1.21-2.9,2-4.06.39-.58.82-1.11,1.24-1.58.47-.56,1.01-1.11,1.61-1.58.59-.46,1.29-.89,1.94-1.08.63-.19,1.22-.21,1.71-.12,1.01.21,1.61.87,1.89,1.54.27.64.24,1.26.27,1.92.02.33.05.67.11.99.08.31.22.55.28.89.07.33.11.7.1,1.16-.04.55-.12,1.11-.23,1.7-.21,1.16-.52,2.38-.95,3.62-.85,2.49-1.96,4.65-3.24,6.22-1.26,1.56-2.7,2.54-4.15,2.36-1.44-.18-2.61-1.56-3.17-3.75Z"/>
    <path class="st9" d="M371.25,244.99c1.98-12.65,4.05-25.89,6.21-39.71-14.12,2.25-27.28,4.34-39.64,6.31,11.14,11.13,22.26,22.24,33.43,33.4ZM361.02,210.03c.43-.08.87-.16,1.31-.25.9-.16,1.82-.31,2.75-.47,1.88-.31,3.86-.59,5.85-.84.35-.04.69-.08,1.04-.13-.03,3.92-.19,7.76-.46,10.98l-.05.6c-.02.2-.04.41-.06.48-.04.2-.08.41-.12.6-.08.4-.17.78-.27,1.15-.19.74-.41,1.44-.64,2.07-.95,2.53-2.24,4.08-3.66,4.08s-2.72-1.56-3.66-4.08c-.24-.63-.45-1.33-.64-2.07-.1-.37-.18-.76-.27-1.15-.04-.2-.08-.4-.12-.6-.02-.14-.04-.14-.06-.14l-.05-.03c-.28-.13-.44,0-.46.04h0s.03-.04.04-.11c0-.04,0-.08-.02-.13,0-.02-.02-.05-.03-.08-.04-.02.06-.07-.25-.06-1.76-.05-3.36-.24-4.72-.55-2.73-.62-4.51-1.73-4.69-3.17-.18-1.44,1.27-2.95,3.76-4.23,1.25-.64,2.75-1.21,4.44-1.69.12-.05.66-.15,1.06-.23Z"/>
    <path class="st12" d="M145.06,205.33c2.24,14.09,4.34,27.25,6.32,39.66,11.29-11.29,22.32-22.32,33.42-33.43-12.72-1.99-25.96-4.07-39.74-6.23ZM178.22,213.49c-.38.38-.76.77-1.14,1.15-1.85,1.87-3.84,3.8-5.63,5.52-.94.87-1.69,1.69-2.46,2.49-.72.8-1.37,1.57-1.99,2.31l-.43.55c-.08.11-.12.14-.15.18l-.11.12c-.15.16-.29.31-.43.47-.29.31-.57.61-.85.9-.56.58-1.09,1.13-1.61,1.63-2.06,1.99-3.84,3.25-5.23,2.76-1.35-.47-2.03-2.74-1.43-6.1.15-.83.38-1.73.71-2.67.16-.47.34-.95.55-1.43.1-.24.21-.49.33-.73l.09-.18c.03-.07.07-.13.05-.12,0-.02-.01-.04-.02-.06-.14-.26-.36-.2-.36-.2h0c.07-.02.35-.15.44-.44.05-.14.05-.31-.03-.51-.04-.1-.09-.21-.16-.32l-.12-.17c0-.06-.19-.13-.35-.19-2.57-1.06-4.35-2.2-4.43-3.63-.09-1.4,1.64-2.85,4.76-3.67.19-.05.36-.1.74-.14.33-.04.67-.07,1.02-.09.7-.05,1.45-.09,2.23-.08,1.57,0,3.28.12,5.02.37,1.75.25,3.51.61,5.4.99,1.84.38,4.03.89,5.61,1.28Z"/>
    <path class="st13" d="M377.52,437.73c-2.22-13.98-4.33-27.22-6.43-40.42-11.52,11.5-22.6,22.56-34.06,34.01,13.25,2.1,26.51,4.2,40.49,6.42ZM364.54,423.59c-1.21-1.4-2.22-3.36-2.82-5.65-.6-2.28-.7-4.49-.34-6.3.37-1.81,1.21-3.23,2.57-3.77,1.35-.54,2.97-.05,4.46,1.27,1.48,1.32,2.81,3.49,3.51,6.11.69,2.62.61,5.16-.03,7.04-.64,1.89-1.81,3.11-3.25,3.31-1.45.2-2.88-.62-4.09-2.01Z"/>
    <path class="st12" d="M145.12,437.75c14.13-2.25,27.26-4.35,39.49-6.29-11.09-11.09-22.18-22.18-33.3-33.3-1.97,12.59-4.03,25.8-6.19,39.59ZM167.55,417.07c1.54,1.93,2.27,4.16,2.22,5.98-.04,1.83-.83,3.25-2.12,3.89-1.31.65-2.85.48-4.32-.14-1.47-.63-2.87-1.71-4.03-3.17-1.16-1.46-1.89-3.06-2.18-4.64-.28-1.57-.1-3.11.83-4.24.92-1.12,2.47-1.57,4.27-1.19,1.79.36,3.79,1.58,5.33,3.51Z"/>
    <path class="st5" d="M260.71,211.04c-.2.95,5.43,3.07,15.42,5.96,4.99,1.45,11.07,3.09,18.06,4.88,3.5.88,7.22,1.81,11.13,2.79,1.96.48,3.97.97,6.03,1.47,1.03.25,2.07.5,3.12.75.53.13,1.06.25,1.59.38l.1.02s.01,0,.02,0h.03s.05.03.05.03l.1.04.07.09.03.05.02.02h0s.07.08.07.08c.38.39.76.78,1.15,1.18.77.79,1.55,1.58,2.33,2.39,1.57,1.6,3.18,3.23,4.8,4.89,3.27,3.3,6.65,6.71,10.12,10.21,3.49,3.48,7.07,7.05,10.73,10.69,3.34,3.29,6.75,6.64,10.21,10.05h0c1.29,4.87,2.57,9.67,3.82,14.38,1.34,4.92,2.65,9.74,3.92,14.44,1.31,4.69,2.58,9.27,3.81,13.71.63,2.22,1.25,4.4,1.85,6.54.31,1.07.61,2.13.91,3.18.15.53.3,1.05.45,1.57.05.18.03.11.05.15l.02.05.05.1v.11s-.02.06-.02.06v.03s-.05.18-.05.18c-.15.54-.3,1.07-.45,1.61-.29,1.07-.59,2.12-.87,3.17-.57,2.09-1.13,4.13-1.67,6.12-1.06,3.99-2.06,7.78-3.01,11.35-1.85,7.14-3.4,13.4-4.57,18.6-2.36,10.39-3.26,16.49-2.32,16.78.94.29,3.61-5.28,7.48-15.2,1.93-4.96,4.17-11.01,6.63-17.97,1.21-3.48,2.5-7.19,3.86-11.08.67-1.95,1.35-3.96,2.05-6.01.35-1.03.7-2.06,1.05-3.11.18-.52.35-1.05.53-1.58.3-.94.61-1.89.92-2.85-1.11-4.58-2.26-9.35-3.44-14.26-1.1-4.47-2.24-9.08-3.4-13.82-1.19-4.72-2.42-9.57-3.67-14.51-1.34-5.16-2.7-10.42-4.09-15.76-.13-.49-.26-.98-.39-1.47-4.19-4.08-8.32-8.09-12.36-12.02-3.72-3.58-7.37-7.08-10.93-10.49-3.58-3.39-7.06-6.69-10.43-9.89-3.72-3.5-7.33-6.88-10.79-10.13-.98-.19-1.96-.38-2.93-.57-.54-.1-1.07-.19-1.61-.29-1.07-.19-2.12-.38-3.16-.57-2.09-.37-4.12-.73-6.11-1.08-3.98-.67-7.76-1.31-11.32-1.92-7.12-1.17-13.34-2.11-18.5-2.79-10.31-1.36-16.31-1.69-16.51-.74Z"/>
    <path class="st5" d="M390.04,212.44c-.19,1.44,5.04,3.45,13.66,5.53,3.47.84,7.5,1.69,11.94,2.52-.22-3.4-.51-6.54-.87-9.44-3.7-.25-7.1-.4-10.12-.47-8.86-.19-14.43.42-14.61,1.86Z"/>
    <path class="st5" d="M427.9,222.56c1.57.23,3.16.46,4.78.7l.28.04h0s0,0,0,0h0s0,.01,0,.01h0s.03-.01.05,0l.02.02h0s0,.02,0,.02l-.09.23c-.28.72-.55,1.44-.83,2.15-1.09,2.84-2.1,5.59-3.03,8.21-1.87,5.25-3.42,10.02-4.58,14.08-2.33,8.11-3.11,13.37-1.8,13.91,1.31.54,4.46-3.73,8.54-11.12,2.04-3.69,4.31-8.17,6.69-13.21,1.19-2.52,2.41-5.18,3.65-7.96.31-.7.62-1.4.93-2.1.57-1.34,1.14-2.7,1.72-4.06,1.22-2.9,2.45-5.85,3.7-8.84-1.43-.19-2.88-.38-4.33-.57-3.24-.41-6.44-.82-9.59-1.22-1.63-.18-3.23-.36-4.8-.54-3.15-.34-6.19-.63-9.1-.87-.55-.05-1.1-.09-1.64-.13-.36,2.93-.63,6.1-.86,9.54.41.07.83.15,1.25.22,2.87.51,5.89,1,9.02,1.48Z"/>
    <path class="st5" d="M429.26,294.61c-.81,1.21,2.83,5.22,9.36,10.72,3.26,2.75,7.25,5.87,11.77,9.21,2.26,1.67,4.65,3.39,7.15,5.14l.94.66.41.29h0s0,.04-.01.04c-.01.01-.03.01-.03.01h0s.02,0,.03.02c0,0,.01.02.01.03h0s.05-.01-.17.14l-.95.64c-2.52,1.7-4.92,3.37-7.2,5-4.55,3.24-8.56,6.28-11.85,8.96-6.58,5.36-10.25,9.29-9.47,10.51s5.88-.49,13.49-4.25c3.81-1.88,8.24-4.27,13.08-7.06,2.42-1.4,4.94-2.89,7.53-4.47l.98-.6c.59-.37,1.18-.74,1.77-1.11,1.3-.82,2.62-1.66,3.94-2.49,2.65-1.69,5.34-3.41,8.06-5.14l-.43-.28c-2.7-1.79-5.37-3.56-8-5.3-1.32-.86-2.62-1.72-3.92-2.57-.84-.54-1.66-1.07-2.49-1.6-2.58-1.63-5.09-3.18-7.49-4.63-4.81-2.89-9.23-5.37-13.03-7.33-7.59-3.91-12.68-5.73-13.49-4.52Z"/>
    <path class="st5" d="M369.88,161.97c-.03-2.82-.1-5.78-.2-8.84-.03-.77-.06-1.54-.09-2.32-.06-1.26-.12-2.54-.19-3.82-.17-3.16-.35-6.37-.53-9.62-.06-1.04-.12-2.07-.18-3.1-2.85,1.38-5.67,2.74-8.45,4.08-1.38.67-2.74,1.34-4.1,2-.6.3-1.2.59-1.79.88l-1,.51c-2.65,1.35-5.19,2.68-7.59,3.98-4.8,2.6-9.06,5.06-12.56,7.26-7.01,4.4-11.02,7.75-10.41,9.03.61,1.29,5.74.28,13.57-2.41,3.91-1.34,8.5-3.1,13.54-5.2,2.52-1.05,5.15-2.19,7.87-3.4l1.02-.46.23-.1h0s.01.01.01.01c.02,0,.02.02.03.03,0,.02,0,.04,0,.05h0s0,0,.03,0h.02s0,0,0,0l.02.29.04.58c.06.78.12,1.55.18,2.31.25,3.06.52,6,.82,8.81.48,4.59,1.03,8.8,1.6,12.5,2.79-.1,5.43-.22,7.93-.37.15-3.76.21-8.03.16-12.69Z"/>
    <path class="st5" d="M366.69,190.96c1.45-.08,2.47-5.42,2.93-13.98,0-.18.02-.36.03-.54-2.43-.14-4.99-.26-7.69-.36.07.45.15.89.22,1.33,1.44,8.45,3.06,13.64,4.52,13.55Z"/>
    <path class="st5" d="M261.17,113.46c-1.2.83.27,5.26,3.6,11.75,1.67,3.25,3.8,7.01,6.3,11.09,1.25,2.04,2.6,4.16,4.02,6.34.72,1.08,1.45,2.19,2.19,3.31.74,1.09,1.5,2.19,2.26,3.31,0,0,0,0,.04,0,.02,0,.04.02.05.06v.02s0,0,0,0l-.15.16-.62.66c-.41.44-.81.87-1.21,1.3-1.59,1.72-3.1,3.4-4.51,5.02-2.82,3.23-5.25,6.22-7.19,8.82-3.87,5.19-5.75,8.83-4.79,9.79.96.96,4.6-.92,9.79-4.79,2.6-1.94,5.58-4.37,8.82-7.19,1.62-1.41,3.3-2.92,5.02-4.51.43-.4.86-.8,1.3-1.21l.66-.62c.38-.37.76-.74,1.14-1.11,1.73-1.7,3.5-3.43,5.28-5.18-1.6-2.33-3.23-4.7-4.88-7.1-.81-1.15-1.61-2.29-2.39-3.41-.79-1.09-1.56-2.16-2.32-3.22-1.54-2.1-3.05-4.1-4.52-5.99-2.94-3.78-5.71-7.1-8.16-9.8-4.9-5.4-8.53-8.33-9.73-7.51Z"/>
    <path class="st5" d="M387.24,143.34c-1.34,2.1,7.33,10.1,18.6,20.8,2.28-2.36,4.05-5.25,5.44-8.76-4.74-3.79-9.29-6.79-13.11-8.89-5.94-3.24-10.15-4.38-10.93-3.15Z"/>
    <path class="st5" d="M432.12,190.81c.88.93,1.64,1.75,2.36,2.37,1.42,1.26,2.53,1.83,3.18,1.51.65-.32.78-1.53.41-3.49-.19-.97-.47-2.16-.92-3.47-.5-1.28-1.12-2.71-1.87-4.28-.24-.5-.51-1.01-.79-1.52-2.52,1.23-4.67,2.71-6.51,4.5.38.41.77.83,1.14,1.22,1.06,1.18,2.06,2.24,3,3.15Z"/>
    <path class="st5" d="M474.6,295.87c.78,1.64,1.56,2.53,2.28,2.48s1.33-1.05,1.8-2.83c.45-1.78.87-4.36.9-7.52.22-6.33-.59-15.07-2.98-24.41-2.37-9.34-5.75-17.46-9.01-22.93-3.22-5.49-6.24-8.37-7.52-7.68-1.28.69-.73,4.54.61,10.46,1.38,5.9,3.46,13.89,5.71,22.72,2.26,8.83,4.15,16.88,5.8,22.75.9,2.92,1.61,5.31,2.41,6.95Z"/>
    <path class="st5" d="M290.12,108.79c-.22,2.9,12.89,6.3,28.86,9.81,7.98,1.77,15.16,3.32,20.47,4.27,1.32.25,2.54.44,3.64.56,1.08.15,2.03.26,2.84.27,1.63.03,2.7-.25,3.02-.9.32-.66-.16-1.63-1.34-2.84-.59-.6-1.35-1.29-2.28-1.98-.94-.66-2.04-1.37-3.29-2.1-4.99-2.87-12.39-5.71-20.78-7.57-16.83-3.69-30.93-2.41-31.13.49Z"/>
    <path class="st5" d="M460.02,399.2c-.52,2.93-.88,5.34-.9,7.11-.02,1.77.28,2.89.96,3.17s1.65-.32,2.86-1.65c1.2-1.33,2.65-3.4,4.1-6.09,2.97-5.36,6.14-13.2,8.47-22.16,4.77-17.95,4.29-33.29,1.38-33.6-2.88-.32-6.99,13.69-11.58,30.92-2.25,8.63-4.18,16.47-5.29,22.3Z"/>
    <path class="st5" d="M233.62,178.36c-3.87-3.87-8.67-5.33-10.73-3.28s-.59,6.86,3.28,10.73c3.87,3.87,8.67,5.33,10.73,3.28,2.06-2.06.59-6.86-3.28-10.73Z"/>
    <path class="st5" d="M194.44,187.5c1.29-2.98,2.67-6.59,4.08-10.67.7-2.04,1.41-4.19,2.12-6.44.17-.56.35-1.13.53-1.7l.26-.86c.14-.49.28-.98.42-1.47.66-2.35,1.33-4.73,2.01-7.15-2.58-1.27-5.21-2.57-7.87-3.88-19.97-9.75-37.19-15.54-38.47-12.92s13.87,12.64,33.84,22.39c.12.06.08.04.09.04h0s0,0,0,0h0s.01-.01.03-.02c.02,0,.04,0,.07.03h0s.02-.03,0,.07l-.05.22-.21.88c-.14.58-.27,1.16-.4,1.74-.52,2.3-1,4.51-1.42,6.63-.84,4.23-1.46,8.04-1.85,11.27-.78,6.45-.6,10.55.71,10.91s3.53-3.1,6.11-9.07Z"/>
    <path class="st5" d="M423.65,383.32c-1.35.52-.8,5.58,1.19,13.35.99,3.89,2.34,8.45,3.99,13.47.82,2.51,1.72,5.13,2.69,7.83.22.62.45,1.25.68,1.88,0,.01-.02.02-.03.02-.02,0-.04,0-.04,0h0s.01,0,.01.03v.02s0,0,0,0h0s-.13.02-.13.02l-.27.03c-.73.09-1.46.18-2.18.27-2.88.37-5.65.76-8.29,1.17-5.27.82-10.01,1.7-13.97,2.59-7.92,1.78-12.74,3.61-12.59,5.06.15,1.45,5.25,2.24,13.37,2.36,4.06.06,8.87-.06,14.2-.34,2.66-.14,5.46-.33,8.35-.56.72-.06,1.45-.12,2.19-.18,1.33-.13,2.68-.26,4.03-.39,2.98-.3,6.01-.61,9.07-.92.34-.04.68-.07,1.01-.11-1.11-2.84-2.21-5.65-3.29-8.42-.54-1.37-1.08-2.74-1.62-4.09-.3-.73-.6-1.45-.89-2.17-1.1-2.65-2.2-5.2-3.27-7.61-2.15-4.82-4.22-9.11-6.1-12.65-3.76-7.09-6.75-11.2-8.1-10.68Z"/>
    <path class="st5" d="M351.75,216.17c.18,1.44,1.96,2.55,4.69,3.17,1.36.31,2.97.5,4.72.55.31,0,.21.04.25.06.01.03.03.05.03.08.02.05.02.09.02.13,0,.07-.04.11-.04.11h0s.19-.17.46-.04l.05.03s.04,0,.06.14c.04.2.08.41.12.6.08.4.17.78.27,1.15.19.74.41,1.44.64,2.07.95,2.53,2.24,4.08,3.66,4.08s2.72-1.56,3.66-4.08c.24-.63.45-1.33.64-2.07.1-.37.18-.76.27-1.15.04-.2.08-.4.12-.6.02-.07.04-.27.06-.48l.05-.6c.28-3.23.44-7.06.46-10.98-.34.04-.69.08-1.04.13-1.99.25-3.97.53-5.85.84-.93.16-1.85.32-2.75.47-.44.08-.88.17-1.31.25-.4.08-.94.18-1.06.23-1.69.48-3.2,1.06-4.44,1.69-2.49,1.27-3.94,2.78-3.76,4.23Z"/>
    <path class="st5" d="M401.87,295.74c1.41-.95,2.92-2.27,4.4-3.91.18-.21.37-.42.55-.63.27-.33.61-.8.91-1.21.62-.85,1.24-1.74,1.84-2.67,1.19-1.85,2.34-3.79,3.52-5.81l.05-.09s-.06-.04-.09-.05l-.19-.11-.37-.21-.74-.42c-.5-.28-.99-.55-1.48-.82-.99-.54-1.94-1.07-2.97-1.56-1-.48-1.99-.95-2.95-1.41l-.71-.33-.35-.16c-.13-.06-.14-.06-.22-.09-.25-.09-.49-.19-.73-.28-1.94-.72-3.75-1.24-5.35-1.55-3.19-.61-5.5-.34-6.18.95s.4,3.35,2.7,5.64c1.15,1.15,2.6,2.35,4.29,3.54.21.15.43.3.64.45.04.03.14.09.13.09v.02s0,.04,0,.04c0,.05-.03.09-.05.12-.04.06-.09.07-.09.07,0,0,.05-.01.12.02.03.02.07.04.1.09,0,.04.05,0,.02.11-.11.22-.23.44-.34.65-.88,1.72-1.64,3.32-2.21,4.76-1.13,2.87-1.51,5.12-.45,6.13,1.04,1,3.38.52,6.2-1.39Z"/>
    <path class="st5" d="M412.53,359.37c.53-.38,1.06-.77,1.58-1.14-1.76-1.58-3.6-3.18-5.31-4.65-.87-.73-1.66-1.45-2.41-2.15-.38-.34-.74-.7-1.08-1.03-.18-.16-.37-.31-.55-.46-1.4-1.17-2.7-2.23-3.89-3.08-2.37-1.7-4.34-2.63-5.57-1.92-1.2.69-1.42,2.99-.34,6.13.54,1.57,1.4,3.33,2.61,5.14.15.22.3.44.45.66,0,.05-.01.07-.03.1-.03.05-.06.09-.09.12-.06.05-.13.06-.16.06h-.01s.05,0,.09.06c.01.01.02.03.03.05v.03s.02.02.02.02c0,0,.02,0-.05.06-.42.39-.81.77-1.2,1.16-1.53,1.54-2.77,3.08-3.7,4.49-1.85,2.83-2.41,5.15-1.43,6.22.99,1.08,3.29.73,6.26-.54,1.48-.64,3.14-1.51,4.89-2.55.43-.27.88-.54,1.33-.82.87-.61,1.77-1.23,2.67-1.85,1.88-1.3,3.9-2.68,5.88-4.11Z"/>
    <path class="st5" d="M162.18,210.85c-.78,0-1.53.03-2.23.08-.35.02-.68.05-1.02.09-.38.04-.55.09-.74.14-3.12.82-4.84,2.27-4.76,3.67.09,1.43,1.86,2.57,4.43,3.63.16.07.36.14.35.19l.12.17c.07.11.13.22.16.32.07.2.07.37.03.51-.09.28-.37.41-.44.43h0s.22-.06.36.2c.01.02.01.03.02.06.02,0-.02.06-.05.12l-.09.18c-.12.24-.22.49-.33.73-.21.48-.39.96-.55,1.43-.32.93-.55,1.83-.71,2.67-.6,3.36.08,5.63,1.43,6.1,1.39.49,3.18-.78,5.23-2.76.52-.5,1.05-1.05,1.61-1.63.28-.29.56-.59.85-.9.14-.15.29-.31.43-.47l.11-.12s.07-.07.15-.18l.43-.55c.62-.74,1.27-1.51,1.99-2.31.77-.8,1.51-1.62,2.46-2.49,1.79-1.72,3.78-3.66,5.63-5.52.38-.39.76-.77,1.14-1.15-1.57-.38-3.76-.89-5.61-1.28-1.89-.39-3.66-.75-5.4-.99-1.74-.25-3.45-.37-5.02-.37Z"/>
    <path class="st5" d="M135.29,167.09c.89-12.37.08-22.68-2.82-23.13-2.86-.44-6.77,9.52-7.7,22.36-.95,12.84,1.47,23.26,4.36,23.24,2.93-.02,5.23-10.1,6.15-22.47Z"/>
    <path class="st5" d="M219.8,138.37c3.21-2.68,7.01-6.96,10.42-12.22,3.41-5.26,5.78-10.47,6.92-14.49,1.15-4.03,1.11-6.87-.17-7.53-1.3-.67-3.59.92-6.34,3.9-2.75,2.99-5.99,7.36-9.25,12.38-3.26,5.02-5.93,9.76-7.54,13.49-1.61,3.73-2.13,6.47-.99,7.38,1.13.9,3.73-.22,6.95-2.91Z"/>
    <path class="st5" d="M371.88,422.29c.64-1.88.72-4.42.03-7.04-.69-2.62-2.02-4.79-3.51-6.11-1.49-1.33-3.11-1.81-4.46-1.27-1.36.54-2.2,1.96-2.57,3.77-.36,1.81-.27,4.02.34,6.3.6,2.28,1.61,4.25,2.82,5.65,1.21,1.39,2.65,2.21,4.09,2.01,1.44-.2,2.61-1.42,3.25-3.31Z"/>
    <path class="st5" d="M334.93,447.9c-.03,1.35,3.65,2.54,9.43,4.22,2.9.84,6.32,1.85,10.08,3.08,1.88.62,3.85,1.31,5.87,2.07.51.19,1.02.38,1.53.58l.77.31.37.15s.03.02.03.02c.02.05.01.08,0,.1-.02.02-.04.03-.05.04h0s0,0,0,0h0s-.01.1-.01.1l-.06.39c-.07.51-.15,1.03-.22,1.55-3.13,22.23-3.33,40.58-.45,40.99,2.88.41,7.76-17.29,10.89-39.52.19-1.39.38-2.77.57-4.14.16-1.02.22-2.04.07-2.92-.14-.87-.44-1.69-.93-2.48-.31-.47-.65-.88-1.03-1.23-.19-.18-.39-.34-.61-.5l-.79-.36c-1.06-.47-2.07-.96-3.14-1.38l-.81-.27-.46-.14-.88-.27c-.59-.17-1.17-.33-1.75-.5-2.31-.63-4.56-1.13-6.7-1.51-4.29-.74-8.17-1.03-11.4-.99-6.48.1-10.31,1.34-10.33,2.62Z"/>
    <path class="st5" d="M419.7,449.55c-.68.08-1.59.2-1.8.25-.73.13-1.45.27-2.14.42-2.77.59-5.18,1.3-7.19,2.03-4.02,1.47-6.42,3.11-6.24,4.55.18,1.44,2.91,2.42,7.18,2.84,2.13.21,4.65.27,7.37.22.68-.02,1.37-.03,2.07-.05.5-.02.32.02.38.03.01.02.02.04.02.06.01.07-.03.11-.03.11-.01,0,.08-.07.28-.15.23-.09.52-.1.69.2.09.15.15.36.17.66.05.01-.08.29-.17.5-.09.22-.17.43-.25.64-.16.42-.31.83-.44,1.23-1.05,3.16-1.1,5.39-.06,6.06,1.05.68,3.02-.29,5.51-2.37.31-.26.63-.54.96-.83.16-.15.33-.3.5-.45.17-.16.31-.26.62-.64,1.1-1.24,2.33-2.67,3.7-4.27,2.73-3.18,6.1-7.18,9.49-11.42-.35-.02-.69-.04-1.04-.06-.39-.01-.78-.03-1.18-.04-.79-.02-1.59-.05-2.39-.07-1.61-.03-3.25-.06-4.91-.09-2.86-.06-5.92.07-8.89.37-.74.08-1.47.16-2.2.25Z"/>
    <path class="st5" d="M134.64,245.64c.8-1.74,1.37-3.92,1.65-6.27.28-2.35.29-4.86.12-7.33-.65-9.85-3.54-17.67-6.44-17.48-2.9.19-4.73,8.33-4.08,18.18.36,4.91.98,8.73,1.41,11.61.48,2.85.84,5,2.18,5.65.66.3,1.51.12,2.45-.6.94-.72,1.92-2.01,2.71-3.75Z"/>
    <path class="st5" d="M83.37,269.18c-.35-2.39-1.08-5.03-1.96-7.78-.89-2.78-2.01-5.78-3.32-8.86-5.25-12.34-11.69-21.42-14.36-20.28-2.68,1.14-.59,12.07,4.66,24.41,1.31,3.09,2.7,5.97,4.08,8.54,1.39,2.6,2.76,4.76,3.89,6.51,1.15,1.75,2.09,3.15,2.94,4.14.84.98,1.59,1.56,2.32,1.47.71-.08,1.34-.86,1.7-2.29.36-1.42.41-3.48.05-5.86Z"/>
    <path class="st5" d="M287.85,489.43c1.87-2.25-2.53-9-9.36-15.6-6.84-6.59-13.74-10.75-15.92-8.8-2.16,1.93,1.45,9.5,8.6,16.38,7.14,6.9,14.83,10.24,16.68,8.01Z"/>
    <path class="st5" d="M306.15,499.35c-1.44,2.53,7.08,10.07,19.01,16.83,1.49.85,2.97,1.64,4.41,2.37,1.43.73,2.85,1.43,4.37,2.08,1.5.64,3.08,1.19,4.62,1.54,1.53.35,2.88.48,4.07.54,2.38.11,4.12-.04,5.44-.27,1.3-.24,2.18-.61,2.47-1.28.28-.66-.11-1.6-1.2-2.62-1.07-1.02-2.86-2.05-4.84-3.05-.98-.5-2.02-1-2.98-1.55-.95-.54-1.94-1.17-3.07-1.91-1.11-.73-2.4-1.6-3.78-2.46-1.37-.86-2.81-1.72-4.3-2.56-11.94-6.76-22.78-10.19-24.21-7.66Z"/>
    <path class="st5" d="M219.69,450.61c-.51,1.36.74,3.23,3.17,5.15.61.48,1.29.96,2.03,1.44.37.24.76.48,1.16.71.2.11.4.23.6.35,0,.04.01.08.02.12.02.29-.2.37-.2.37,0,0,.26-.06.42.15.04.06.09.11.1.22,0,.06.04.08,0,.2-.13.23-.25.45-.37.67-.47.89-.85,1.76-1.11,2.58-1.07,3.3-.58,5.65.72,6.23,1.34.61,3.21-.45,5.44-2.03.54-.4,1.13-.83,1.75-1.29.15-.11.31-.23.46-.35.3-.27.6-.54.91-.82.3-.29.68-.58,1.05-.89.36-.31.74-.62,1.18-.92.89-.61,1.63-1.3,2.31-2.01.24-.35.48-.7.73-1.06.17-.33.29-.64.43-.97.19-.61.32-1.09.32-1.69.05-.55-.22-1.71-.42-2.1-.1-.25-.28-.53-.45-.8-.15-.27-.35-.54-.62-.82-.51-.55-1.24-1.08-2.2-1.46-2.01-.7-3.99-1.3-5.8-1.84-.45-.13-.89-.26-1.33-.38-.24-.05-.48-.09-.71-.14-.46-.08-.91-.16-1.35-.22-.88-.12-1.71-.2-2.48-.23-3.09-.13-5.25.47-5.76,1.84Z"/>
    <path class="st5" d="M303.39,466.83c1.27-1.57,2.39-3.74,3.24-6.22.42-1.25.74-2.46.95-3.62.1-.58.18-1.15.23-1.7,0-.46-.03-.83-.1-1.16-.06-.33-.2-.58-.28-.89-.07-.32-.1-.66-.11-.99-.03-.66,0-1.28-.27-1.92-.28-.67-.88-1.33-1.89-1.54-.5-.1-1.08-.08-1.71.12-.64.2-1.35.62-1.94,1.08-.6.47-1.14,1.02-1.61,1.58-.43.47-.85,1-1.24,1.58-.79,1.16-1.49,2.54-2,4.06-1.04,3.04-1.13,6.04-.58,8.23.56,2.2,1.73,3.57,3.17,3.75,1.45.18,2.89-.8,4.15-2.36Z"/>
    <path class="st5" d="M123.35,285.84c-1.03,6.4.66,11.9,3.55,12.26,2.89.36,5.86-4.4,6.86-10.58.99-6.19-.33-11.64-3.19-12.2-2.85-.57-6.19,4.13-7.22,10.53Z"/>
    <ellipse class="st5" cx="127.74" cy="352.06" rx="5.27" ry="11.59" transform="translate(-58.82 27.32) rotate(-9.93)"/>
    <path class="st5" d="M157.95,414.76c-.93,1.13-1.11,2.67-.83,4.24.29,1.57,1.02,3.18,2.18,4.64,1.16,1.46,2.56,2.54,4.03,3.17,1.46.62,3.01.79,4.32.14,1.3-.65,2.08-2.06,2.12-3.89.05-1.82-.68-4.05-2.22-5.98-1.54-1.93-3.54-3.15-5.33-3.51-1.8-.37-3.35.08-4.27,1.19Z"/>
    <path class="st5" d="M111.14,333.32c1.23-1.18,2.52-2.42,3.87-3.71.33-.33.67-.65,1.01-.98.67-.68,1.35-1.37,2.03-2.06,1.38-1.4,2.79-2.83,4.21-4.27-1.25-1.65-2.52-3.33-3.8-5.02-.94-1.22-1.86-2.43-2.77-3.63-.65-.84-1.3-1.66-1.93-2.47-1.28-1.61-2.53-3.16-3.74-4.62-2.42-2.92-4.69-5.5-6.71-7.59-4.03-4.19-7.07-6.46-8.29-5.66-1.21.79-.36,4.53,2.15,9.88,1.25,2.67,2.93,5.74,4.96,9.04,1.02,1.65,2.12,3.35,3.32,5.08.59.87,1.21,1.74,1.85,2.62.32.44.64.88.97,1.33l.2.27h0s0,0,0,0c0,0,0,0,.03,0,.02,0,.04.02.06.05,0,.01.02.03.02.06-.32.37-.64.74-.95,1.11-1.25,1.47-2.4,2.92-3.47,4.33-2.13,2.81-3.88,5.45-5.21,7.76-2.65,4.62-3.62,7.9-2.55,8.75,1.08.85,3.98-.86,7.99-4.18,2-1.66,4.29-3.72,6.77-6.06Z"/>
    <path class="st4" d="M426.22,485.94c45.24-45.45,67.85-100.66,68.87-157.97-.08-57.07-18.75-108.75-49.96-149.43,11.51-2.34,27.79-2.66,50.9-3-27.52-.4-45.35-.78-56.97-4.58-5.76-6.9-11.89-13.44-18.37-19.61-3.29-11.64-3.65-29.04-4.03-55.19-.32,21.9-.62,37.67-2.65,49.05-40.96-36.08-94.28-57.53-152.45-57.39-63.59.16-118.37,23.2-163.67,67.74-46.08,45.31-69.66,101.37-69.69,165.34-.03,63.74,23.41,119.56,69.02,165.06,45.48,45.37,101.18,68.68,164.73,68.63,63.4-.05,119.09-23.27,164.28-68.67ZM270.89,545.52c12.42-17.76,24.22-34.63,36.34-51.96,19.53,8.76,38.88,17.43,59.17,26.53-30.2,15.7-61.32,23.82-95.51,25.44ZM202.89,431.11c-2.71-.74-5.55-2.24-7.55-4.19-13.39-13.1-26.61-26.37-39.75-39.71-1.66-1.68-3.12-3.95-3.72-6.2-5.03-18.64-9.84-37.35-14.69-56.04-.33-1.28-.49-2.6-.82-4.42,1.37-5.15,2.85-10.73,4.32-16.31,3.67-13.88,7.24-27.79,11.08-41.63.67-2.42,2.02-4.93,3.77-6.71,6.11-6.22,12.26-12.42,18.42-18.59,7.19-7.2,14.4-14.36,21.66-21.49,1.78-1.75,4.27-3.15,6.68-3.8,18.32-4.96,36.68-9.78,55.08-14.42,2.61-.66,5.67-.8,8.25-.14,18.07,4.62,36.09,9.43,54.06,14.41,2.71.75,5.53,2.29,7.53,4.25,13.39,13.1,26.61,26.37,39.75,39.71,1.66,1.68,3.14,3.94,3.75,6.19,5.07,18.46,9.99,36.97,14.72,55.52.62,2.43.43,5.32-.19,7.78-4.67,18.4-9.48,36.76-14.45,55.08-.65,2.41-2,4.94-3.74,6.71-7.88,8.02-15.82,15.99-23.78,23.93-5.42,5.4-10.84,10.79-16.3,16.15-1.78,1.75-4.27,3.17-6.68,3.83-18.14,4.99-36.33,9.83-54.56,14.48-2.59.66-5.65.59-8.26-.07-18.24-4.61-36.44-9.37-54.6-14.32ZM145.12,437.75c2.15-13.79,4.22-27.01,6.19-39.59,11.12,11.12,22.22,22.22,33.3,33.3-12.23,1.95-25.36,4.04-39.49,6.29ZM141.98,379.26c-13.83-5.31-26.56-10.19-39.82-15.28,9.08-11.05,17.82-21.68,27.23-33.13,4.3,16.54,8.3,31.9,12.59,48.41ZM129.4,311.44c-9.28-11.05-17.97-21.41-27.17-32.38,13.16-5.07,25.8-9.94,39.7-15.29-4.27,16.23-8.23,31.29-12.53,47.67ZM151.38,244.99c-1.98-12.41-4.07-25.57-6.32-39.66,13.78,2.16,27.02,4.24,39.74,6.23-11.11,11.11-22.13,22.13-33.42,33.43ZM261.71,185.87c-12.95-10.63-25.69-21.09-38.86-31.89,12.96-18.14,25.7-35.98,38.85-54.4,12.82,18.32,25.28,36.14,38.07,54.42-12.95,10.84-25.35,21.22-38.07,31.87ZM303.78,162.46c5.08,13.24,9.95,25.93,15.23,39.68-16.16-4.25-31.3-8.23-47.63-12.52,11.19-9.38,21.58-18.08,32.4-27.16ZM251.98,189.62c-16.57,4.31-31.92,8.29-48.43,12.58,5.33-13.87,10.21-26.58,15.29-39.81,11.07,9.1,21.69,17.82,33.14,27.23ZM377.46,205.28c-2.16,13.82-4.23,27.06-6.21,39.71-11.17-11.16-22.29-22.27-33.43-33.4,12.35-1.97,25.51-4.06,39.64-6.31ZM380.67,263.83c13.63,5.21,26.28,10.05,39.66,15.18-9.03,10.8-17.7,21.17-27.14,32.46-4.31-16.39-8.27-31.44-12.52-47.63ZM393.17,330.81c9.43,11.48,18.16,22.1,27.24,33.16-13.25,5.09-25.97,9.97-39.77,15.27,4.23-16.35,8.22-31.78,12.53-48.43ZM371.09,397.3c2.1,13.21,4.21,26.44,6.43,40.42-13.98-2.22-27.24-4.32-40.49-6.42,11.46-11.44,22.54-22.51,34.06-34.01ZM319.01,440.87c-5.28,13.76-10.15,26.46-15.23,39.69-10.78-9.02-21.12-17.67-32.41-27.12,16.2-4.28,31.42-8.29,47.64-12.58ZM251.95,453.4c-11.33,9.33-21.93,18.05-33.13,27.28-5.16-13.48-10.01-26.18-15.23-39.82,16.35,4.24,31.73,8.23,48.37,12.54ZM237.53,476.95c7.16-5.88,14.27-11.82,21.57-17.52,1.06-.83,3.65-1.25,4.48-.58,12.03,9.81,23.88,19.85,36.2,30.19-12.81,18.31-25.21,36.03-38.07,54.41-13.06-18.29-25.79-36.11-38.85-54.39,5.05-4.17,9.85-8.15,14.67-12.11ZM451.41,441.91c-18.05,28.32-41.1,51.23-70.48,69.91,1.43-15.53,2.74-29.69,4.04-43.85.52-5.61,1.11-11.21,1.54-16.82.18-2.35.49-4.1,3.48-4.36,19.96-1.74,39.92-3.6,59.88-5.41.29-.03.6.19,1.54.52ZM333.4,439.8c14.63,2.43,29.28,4.77,44.85,7.29-2.07,22.06-4.1,43.68-6.2,66-4.4-1.98-7.98-3.61-11.56-5.21-14.93-6.69-29.81-13.47-44.81-19.99-3.24-1.41-4.17-2.66-2.75-6.18,5.11-12.69,10.01-25.47,14.71-38.32,1.13-3.11,2.64-4.11,5.77-3.59ZM386.86,438.46c-2.51-15.58-4.97-30.51-7.24-45.46-.19-1.28.55-3.66,1.46-4.02,14.65-5.86,29.39-11.49,44.57-17.34,9.11,20.29,17.99,40.07,27.22,60.64-22.43,2.1-44.05,4.12-66.02,6.18ZM460.06,427.07c-9.24-20.6-17.89-39.88-26.75-59.63,17.38-12.41,34.65-24.75,52.9-37.78-1.55,34.81-9.89,66.45-26.15,97.41ZM428.86,359.94c-7.8-9.47-15.41-18.6-22.87-27.83-2.97-3.67-7.78-7.57-7.8-11.39-.02-3.57,5.15-7.21,8.11-10.76,7.39-8.88,14.82-17.73,22.51-26.92,18.18,12.71,36.03,25.19,54.43,38.05-18.31,13.09-36.15,25.84-54.37,38.86ZM486.26,312.59c-18.29-12.79-35.46-24.79-52.94-37.01,8.89-19.83,17.66-39.38,26.94-60.08,16.15,30.7,24.32,62.25,26,97.09ZM452.41,210.7c-.54,1.71-.8,2.93-1.3,4.05-7.84,17.49-15.81,34.93-23.48,52.49-1.49,3.41-2.9,3.93-6.24,2.6-12.71-5.08-25.48-10.02-38.34-14.71-3.18-1.16-3.98-2.75-3.47-5.82,2.44-14.63,4.78-29.27,7.29-44.74,9.17.86,18.26,1.71,27.34,2.56.2,1.25.39,2.56.56,3.92.36,2.9.64,6.04.87,9.44.62,9.35.81,20.68,1.01,34.44.2-13.58.39-24.79.99-34.07.22-3.44.5-6.61.86-9.54.16-1.29.33-2.54.52-3.74,11.08,1.04,22.17,2.07,33.39,3.12ZM452.59,201.97c-10.88-1-21.39-1.96-31.71-2.92,1.6-5.36,3.87-9.46,7.11-12.6,1.84-1.79,3.99-3.27,6.51-4.5.92-.45,1.9-.86,2.93-1.25,5.35,6.71,10.4,13.79,15.17,21.27ZM416.65,124.13c.73,50.11,1.32,50.7,51.43,51.43-50.11.73-50.7,1.32-51.43,51.43-.73-50.11-1.32-50.7-51.43-51.43,50.11-.73,50.7-1.32,51.43-51.43ZM412.16,198.23c-7.48-.71-14.88-1.42-22.28-2.16-1.16-.12-3.01-1.79-3.12-2.88-.51-5.05-1-10.1-1.49-15.17,15.32,2.53,22.96,7.95,26.88,20.21ZM411.92,153.64c-.2.6-.42,1.18-.64,1.74-1.39,3.51-3.16,6.39-5.44,8.76-4.61,4.79-11.29,7.47-21.02,9.02-1.33-13.98-2.61-28.13-3.97-42.84,11.24,7.06,21.56,14.81,31.06,23.32ZM376.21,174.2c-2.05.18-4.21.34-6.48.47-2.51.15-5.15.27-7.93.37-7.18.26-15.3.39-24.51.52,9.29.13,17.46.27,24.68.53,2.7.1,5.26.21,7.69.36,2.39.14,4.67.3,6.82.5.59,6.32,1.18,12.64,1.78,19.01-11.46,1.84-22.48,3.61-33.49,5.38-3.91.63-7.83,1.22-11.72,1.93-2.66.49-4.16-.26-5.18-3.02-4.91-13.31-10.1-26.51-15-39.82-.43-1.17.16-3.8.99-4.19,19.04-8.77,38.18-17.32,58.21-26.32,1.41,15.06,2.78,29.67,4.15,44.29ZM366.88,122.72c-20.19,9.06-39.63,17.78-59.64,26.77-12.11-17.31-24.18-34.58-36.39-52.04,17.76-3.58,74.51,11.34,96.03,25.27ZM253.16,96.58c-13.03,18.24-25.22,35.32-37.78,52.91-19.56-8.77-39.03-17.49-59.64-26.74,30.9-16.27,62.56-24.58,97.42-26.17ZM71.28,201.45c18.26-28.93,41.28-51.88,70.34-70.6-1.01,11.48-1.88,21.8-2.83,32.11-.88,9.57-1.89,19.12-2.72,28.69-.22,2.54-.5,4.36-3.75,4.64-19.14,1.63-38.27,3.43-57.4,5.16-.91.08-1.84.01-3.64.01ZM189.13,203.23c-14.63-2.4-29.26-4.78-44.8-7.31,2.07-22.06,4.1-43.68,6.2-65.98,13.91,6.24,26.99,12.1,40.07,17.97,5.58,2.5,11.09,5.15,16.74,7.47,2.84,1.17,3.7,2.37,2.44,5.52-5.19,13.01-10.19,26.1-15.02,39.25-1.13,3.07-2.92,3.53-5.64,3.09ZM135.74,204.57c2.5,15.62,4.97,30.56,7.14,45.54.2,1.38-1.11,3.93-2.33,4.42-14.22,5.68-28.56,11.07-43.63,16.82-8.98-19.96-17.88-39.75-27.26-60.6,22.49-2.1,44.12-4.12,66.07-6.18ZM62.68,216.34c9.09,20.25,17.72,39.47,26.58,59.21-17.22,12.06-34,23.81-51.9,36.33,1.4-34.12,9.75-65.17,25.31-95.55ZM93.76,283.03c8.99,10.72,17.72,21.07,26.38,31.47,5.53,6.64,5.47,6.66-.06,13.41-7.34,8.95-14.66,17.93-22.01,26.88-1.35,1.64-2.78,3.2-4.42,5.08-18.14-12.95-35.99-25.69-54.32-38.77,18.41-12.88,36.25-25.35,54.42-38.07ZM37.25,330.29c17.98,12.84,34.89,24.91,52.02,37.14-8.73,19.47-17.3,38.58-26.32,58.7-15.82-30.19-23.95-61.4-25.7-95.84ZM69.7,432.3c7.56-16.87,14.68-32.85,21.91-48.78,1.74-3.84,3.03-9.3,6.07-10.72,2.66-1.24,7.52,2.04,11.35,3.49,10.18,3.86,20.26,7.95,30.5,11.62,3.19,1.14,3.97,2.83,3.47,5.86-2.43,14.62-4.79,29.26-7.3,44.66-21.77-2.03-43.4-4.04-66-6.14ZM71.68,441.38c7.38.58,13.81,1.02,20.23,1.61,13.34,1.22,26.67,2.58,40.01,3.76,2.52.22,3.88.9,4.12,3.72,1.6,18.45,3.35,36.89,5.01,55.34.13,1.48.02,2.97.02,5.1-28.35-18.25-50.96-40.85-69.39-69.52ZM150.46,512.35c-2.02-21.57-4.05-43.2-6.12-65.24,13.34-2.17,26.13-4.38,38.96-6.3,9.97-1.49,10-1.33,13.65,8.17,4.26,11.08,8.48,22.18,12.81,33.23.88,2.25,1.38,3.8-1.51,5.07-18.74,8.27-37.42,16.7-56.12,25.06-.27.12-.63.01-1.67.01ZM156.6,519.9c20.07-9,39.19-17.58,58.76-26.36,12.17,17.03,24.25,33.94,37.11,51.93-34.21-1.49-65.35-9.83-95.87-25.57Z"/>
    <path class="st5" d="M365.22,175.55c50.11.73,50.7,1.32,51.43,51.43.73-50.11,1.32-50.7,51.43-51.43-50.11-.73-50.7-1.32-51.43-51.43-.73,50.11-1.32,50.7-51.43,51.43Z"/>
  </g>
  <path class="st5" d="M589.15,317.35c2.89,1.44,4.4,6.17,2.95,9.24-2.01,4.23-7.9,5.2-11.25,1.86-2.18-2.18-2.71-5.2-1.41-8.03,1.19-2.59,2.92-3.59,6.29-3.65,1.28-.02,2.68.22,3.41.58h0ZM532.96,324.2c.66,1.32,1.76,2.99,2.4,3.67,1.26,1.32,5.65,3.61,6.93,3.61,1.34,0,.62.83-1.4,1.6-1.05.4-2.74,1.29-3.76,1.98-1.98,1.33-4.58,4.74-4.58,6,0,.89-.95,2.32-1.21,1.82-.1-.2-.4-1.05-.68-1.94-.63-2.02-2.92-5.08-4.66-6.25-.72-.48-2.37-1.27-3.61-1.72-2.25-.82-2.93-1.5-1.51-1.5,1.71,0,5.26-1.7,6.8-3.26,1.39-1.4,2.83-3.8,3.45-5.74.12-.39.31-.7.42-.7s.75,1.11,1.42,2.42h0ZM531.35,482.83c2.1,1.47,3.2,4.3,2.59,6.67-.14.55-.93,1.71-1.75,2.56-1.45,1.5-1.57,1.55-4.05,1.55s-2.63-.07-4.01-1.45c-.84-.84-1.67-2.17-1.96-3.14-.46-1.54-.43-1.84.39-3.47.48-.97,1.35-2.12,1.9-2.52,1.98-1.44,5.01-1.52,6.9-.2h0ZM469.29,484.17c.67.14,1.88.95,2.76,1.84,2.88,2.95,2.96,7.24.19,10.01-3.38,3.38-8.39,2.64-11-1.63-.62-1.01-.83-1.98-.83-3.8,0-2.4.03-2.47,1.9-4.34,2.19-2.19,3.92-2.7,6.98-2.07h0ZM494.62,518.07c1.78.5,3.67,2.42,3.95,4.02.34,1.94-.37,4.2-1.7,5.39-.99.89-1.51,1.05-3.49,1.05s-2.51-.16-3.53-1.08c-3.17-2.85-2.48-7.56,1.36-9.22,1.49-.65,1.63-.65,3.41-.15h0ZM462.07,539.63c2.12,1.59,2.71,3.83,1.63,6.12-.64,1.36-3.02,2.95-4.42,2.95-1.24,0-3.7-1.38-4.43-2.48-1.46-2.21-.34-6.15,2.03-7.14,1.4-.59,4.07-.3,5.2.55h0Z"/>
</svg>